# xmcd
#
# Track frame offsets:
#	150
#	1160
#	20169
#	38770
#	65665
#	85377
#	101042
#	123797
#	152690
#	169684
#	192382
#	205110
#	219845
#	232875
#
# Disc length: 3215 seconds
#
# Revision: 0
# Processed by: cddbd v1.5.1PL2 Copyright (c) Steve Scherf et al.
# Submitted via: EasyCDDAExtractor 10.0.2.1
#
DISCID=b00c8d0e
DTITLE=Homesick James - Live from The Stanhope House
DYEAR=1996
DGENRE=blues
TTITLE0=Intro
TTITLE1=Homesick's Shuffle
TTITLE2=Baby, Please set a date
TTITLE3=Gotta Move
TTITLE4=Tin Pan Alley
TTITLE5=Tell me baby
TTITLE6=Dust my broom
TTITLE7=Built up from the Ground
TTITLE8=So log
TTITLE9=Sweet Home, Tennessee
TTITLE10=The Women i love
TTITLE11=Kissing in the Dark
TTITLE12=Shake your Money Maker
TTITLE13=Stanhope Stomp
EXTD=
EXTT0=
EXTT1=
EXTT2=
EXTT3=
EXTT4=
EXTT5=
EXTT6=
EXTT7=
EXTT8=
EXTT9=
EXTT10=
EXTT11=
EXTT12=
EXTT13=
PLAYORDER=
